<svg id="apple" xmlns="http://www.w3.org/2000/svg" width="38.688" height="46.161" viewBox="0 0 38.688 46.161">
  <path id="Path_29" data-name="Path 29" d="M79.86,24.527c-.06-5.846,4.907-8.65,5.129-8.789A11.208,11.208,0,0,0,76.3,11.164c-3.7-.364-7.219,2.116-9.1,2.116s-4.771-2.063-7.839-2.008a11.676,11.676,0,0,0-9.828,5.787c-4.19,7.064-1.073,17.529,3.011,23.258,2,2.8,4.375,5.954,7.5,5.841,3.009-.117,4.146-1.891,7.784-1.891s4.66,1.891,7.844,1.833c3.238-.058,5.289-2.858,7.27-5.671a25.127,25.127,0,0,0,3.291-6.565A10.245,10.245,0,0,1,79.86,24.527ZM73.877,7.371A9.987,9.987,0,0,0,76.35,0a10.76,10.76,0,0,0-7,3.5,9.51,9.51,0,0,0-2.523,7.142A8.912,8.912,0,0,0,73.877,7.371Z" transform="translate(-47.548)" fill="#fff"/>
</svg>
