<svg xmlns="http://www.w3.org/2000/svg" width="47.85" height="52" viewBox="0 0 47.85 52">
  <path id="Path_46" data-name="Path 46" d="M19.152-14h-40.4A3.836,3.836,0,0,0-25.1-10.36v.052c0,.1.156.312.156.416l4.056,36.556a3.494,3.494,0,0,0,.52,1.456A3.573,3.573,0,0,0-18.7,29.732l16.12,7.9A3.635,3.635,0,0,0-.972,38,3.635,3.635,0,0,0,.64,37.636l16.068-7.9a3.763,3.763,0,0,0,2.028-3.484L22.688-10c0-.1.052-.312.052-.416v-.052A3.486,3.486,0,0,0,19.152-14Zm-5.46,39.468L-.868,32.644l-14.82-7.28L-19.536-8.8H17.436Z" transform="translate(25.1 14)" fill="#fff"/>
</svg>
