<svg xmlns="http://www.w3.org/2000/svg" width="157.326" height="54.694" viewBox="0 0 157.326 54.694">
  <g id="Group_11" data-name="Group 11" transform="translate(-1005.337 -1333.725)">
    <g id="Group_3" data-name="Group 3" transform="translate(1054.536 1352.523)">
      <g id="Group_1" data-name="Group 1" transform="translate(0.696 27.453)">
        <path id="Path_1" data-name="Path 1" d="M1319.1,1629.423v-4.414h.479v4.414Z" transform="translate(-1319.1 -1624.94)" fill="#fff"/>
        <path id="Path_2" data-name="Path 2" d="M1335.035,1629.423l-2.506-3.577v3.577h-.479v-4.414h.491l2.506,3.589v-3.589h.485v4.414Z" transform="translate(-1329.991 -1624.94)" fill="#fff"/>
        <path id="Path_3" data-name="Path 3" d="M1366.834,1629.423l-2.506-3.577v3.577h-.479v-4.414h.491l2.506,3.589v-3.589h.485v4.414Z" transform="translate(-1356.733 -1624.94)" fill="#fff"/>
        <path id="Path_4" data-name="Path 4" d="M1394.5,1625.241a2.052,2.052,0,0,1,1.561-.668,2.08,2.08,0,0,1,1.574.668,2.218,2.218,0,0,1,.642,1.606,2.259,2.259,0,0,1-.636,1.618,2.2,2.2,0,0,1-3.148,0,2.275,2.275,0,0,1-.623-1.618A2.233,2.233,0,0,1,1394.5,1625.241Zm.333,2.915a1.638,1.638,0,0,0,1.253.523,1.607,1.607,0,0,0,1.234-.523,1.86,1.86,0,0,0,.485-1.31,1.84,1.84,0,0,0-.485-1.3,1.591,1.591,0,0,0-1.234-.529,1.631,1.631,0,0,0-1.253.529,1.84,1.84,0,0,0-.485,1.3A1.86,1.86,0,0,0,1394.832,1628.156Z" transform="translate(-1381.979 -1624.573)" fill="#fff"/>
        <path id="Path_5" data-name="Path 5" d="M1427.651,1628.844l1.341-3.835h.5l-1.58,4.414h-.542l-1.587-4.414h.5Z" transform="translate(-1408.822 -1624.94)" fill="#fff"/>
        <path id="Path_6" data-name="Path 6" d="M1452.885,1625.009l1.719,4.414h-.516l-.4-1.014h-2.154l-.39,1.014h-.523l1.725-4.414Zm-.277.617-.888,2.324h1.788Z" transform="translate(-1429.704 -1624.94)" fill="#fff"/>
        <path id="Path_7" data-name="Path 7" d="M1477.39,1625.009h3.261v.453h-1.411v3.96h-.479v-3.96h-1.372Z" transform="translate(-1452.218 -1624.94)" fill="#fff"/>
        <path id="Path_8" data-name="Path 8" d="M1505.587,1629.423v-4.414h.479v4.414Z" transform="translate(-1475.932 -1624.94)" fill="#fff"/>
        <path id="Path_9" data-name="Path 9" d="M1517.384,1625.241a2.052,2.052,0,0,1,1.561-.668,2.081,2.081,0,0,1,1.574.668,2.219,2.219,0,0,1,.642,1.606,2.258,2.258,0,0,1-.636,1.618,2.2,2.2,0,0,1-3.148,0,2.274,2.274,0,0,1-.623-1.618A2.232,2.232,0,0,1,1517.384,1625.241Zm.333,2.915a1.638,1.638,0,0,0,1.253.523,1.607,1.607,0,0,0,1.234-.523,1.86,1.86,0,0,0,.485-1.31,1.839,1.839,0,0,0-.485-1.3,1.591,1.591,0,0,0-1.234-.529,1.631,1.631,0,0,0-1.253.529,1.84,1.84,0,0,0-.485,1.3A1.861,1.861,0,0,0,1517.717,1628.156Z" transform="translate(-1485.322 -1624.573)" fill="#fff"/>
        <path id="Path_10" data-name="Path 10" d="M1555.579,1629.423l-2.506-3.577v3.577h-.479v-4.414h.491l2.506,3.589v-3.589h.485v4.414Z" transform="translate(-1515.464 -1624.94)" fill="#fff"/>
        <path id="Path_11" data-name="Path 11" d="M1599.325,1629.423v-4.414h.479v3.961h2.147v.453Z" transform="translate(-1554.763 -1624.94)" fill="#fff"/>
        <path id="Path_12" data-name="Path 12" d="M1624.4,1625.009l1.719,4.414h-.516l-.4-1.014h-2.153l-.39,1.014h-.523l1.725-4.414Zm-.277.617-.888,2.324h1.789Z" transform="translate(-1573.946 -1624.94)" fill="#fff"/>
        <path id="Path_13" data-name="Path 13" d="M1654.688,1629.423v-4.414h1.618c.938,0,1.524.39,1.524,1.171a1.07,1.07,0,0,1-.573.945,1.147,1.147,0,0,1,.68,1.045,1.13,1.13,0,0,1-.415.92,1.717,1.717,0,0,1-1.1.333Zm.479-3.96v1.486h1.234c.554,0,.945-.258.945-.755s-.39-.73-.951-.73Zm0,3.507h1.31c.586,0,.976-.277.976-.813,0-.5-.4-.756-.951-.756h-1.335Z" transform="translate(-1601.322 -1624.94)" fill="#fff"/>
        <path id="Path_14" data-name="Path 14" d="M1684.4,1627a1.825,1.825,0,0,1-.895-.4,1.022,1.022,0,0,1-.353-.812,1.043,1.043,0,0,1,.454-.888,1.773,1.773,0,0,1,1.071-.334,1.984,1.984,0,0,1,1.517.674l-.321.353a1.535,1.535,0,0,0-1.234-.579c-.579,0-1.007.309-1.007.756,0,.416.315.674.938.775l.435.075c.85.132,1.341.561,1.341,1.259a1.08,1.08,0,0,1-.441.888,1.839,1.839,0,0,1-1.171.353,2.068,2.068,0,0,1-1.687-.806l.328-.34a1.655,1.655,0,0,0,1.417.7c.623,0,1.077-.29,1.077-.787q0-.633-.926-.793Z" transform="translate(-1625.168 -1624.573)" fill="#fff"/>
      </g>
      <g id="Group_2" data-name="Group 2" transform="translate(0 0)">
        <path id="Path_15" data-name="Path 15" d="M1563.289,1487.036a4.434,4.434,0,0,1,1.408-1.078,3.947,3.947,0,0,1,1.756-.4,3.807,3.807,0,0,1,2.346.8,5.088,5.088,0,0,1,1.617,2.086l.035.035,3.789-2.468-.035-.035a8.93,8.93,0,0,0-7.752-4.45,8.7,8.7,0,0,0-3.511.712,9.1,9.1,0,0,0-4.78,4.78,8.836,8.836,0,0,0,0,6.953,9.1,9.1,0,0,0,4.78,4.78,8.687,8.687,0,0,0,3.511.713,8.931,8.931,0,0,0,7.752-4.45l.035-.034-3.754-2.468-.035-.035-.035.069a4.478,4.478,0,0,1-1.617,2,4.115,4.115,0,0,1-2.346.713,4.261,4.261,0,0,1-3.164-1.373,4.885,4.885,0,0,1-.939-1.512,5.007,5.007,0,0,1-.348-1.877,5.145,5.145,0,0,1,.348-1.895A5.3,5.3,0,0,1,1563.289,1487.036Z" transform="translate(-1518.849 -1476.82)" fill="#fff"/>
        <path id="Path_16" data-name="Path 16" d="M1676.719,1451.936H1672.1v4.689h-2.5v3.859h2.5v7.281a6.211,6.211,0,0,0,.521,2.538,6.754,6.754,0,0,0,1.408,2.069,6.442,6.442,0,0,0,2.086,1.39,6.518,6.518,0,0,0,2.555.5h3.372v-4.033h-3.372a1.9,1.9,0,0,1-1.374-.556,1.817,1.817,0,0,1-.573-1.356v-7.8h5.377v-3.859l-5.377-.064Z" transform="translate(-1613.159 -1451.936)" fill="#fff"/>
        <path id="Path_17" data-name="Path 17" d="M1766.5,1483.949a9.193,9.193,0,0,0-2.85-1.929,8.609,8.609,0,0,0-3.477-.713,8.813,8.813,0,0,0-3.528.713,9.046,9.046,0,0,0-4.8,4.78,8.68,8.68,0,0,0-.713,3.511,8.593,8.593,0,0,0,.713,3.477,9.16,9.16,0,0,0,1.929,2.85,8.874,8.874,0,0,0,2.868,1.912,9,9,0,0,0,3.528.7,8.884,8.884,0,0,0,4.085-.982,8.687,8.687,0,0,0,3.18-2.734l.07-.07-4.033-1.776-.07-.035-.035.035a3.213,3.213,0,0,1-1.478,1.165,5.417,5.417,0,0,1-1.721.26,3.771,3.771,0,0,1-1.877-.467,5.19,5.19,0,0,1-1.426-1.16,5.041,5.041,0,0,1-.741-1.153h12.77l.035-.069a8.972,8.972,0,0,0,.208-1.947,8.7,8.7,0,0,0-.712-3.511A9.193,9.193,0,0,0,1766.5,1483.949Zm-10.638,4.832c.041-.139.087-.276.14-.41a4.656,4.656,0,0,1,.956-1.524,4.6,4.6,0,0,1,1.443-1.022,4.216,4.216,0,0,1,1.773-.381,4.035,4.035,0,0,1,2.66.938,5.179,5.179,0,0,1,1.616,2.4Z" transform="translate(-1681.734 -1476.636)" fill="#fff"/>
        <path id="Path_18" data-name="Path 18" d="M1443.15,1483.927a6.6,6.6,0,0,0-2.329-1.947,7.04,7.04,0,0,0-3.164-.672,8.605,8.605,0,0,0-3.477.713,9.1,9.1,0,0,0-4.78,4.78,8.683,8.683,0,0,0-.712,3.511,8.6,8.6,0,0,0,.712,3.477,9.164,9.164,0,0,0,1.929,2.85,8.924,8.924,0,0,0,2.851,1.912,8.791,8.791,0,0,0,3.477.7,6.657,6.657,0,0,0,4.2-1.314l-2.1-3.048a4.434,4.434,0,0,1-1.469.225,4.594,4.594,0,0,1-1.877-.383,5.186,5.186,0,0,1-1.547-1.047,4.853,4.853,0,0,1-1.061-1.535,4.555,4.555,0,0,1-.382-1.85,4.764,4.764,0,0,1,.382-1.9,4.6,4.6,0,0,1,1.061-1.535,5.373,5.373,0,0,1,1.547-1.03,4.6,4.6,0,0,1,1.877-.384,4.834,4.834,0,0,1,1.86.366,4.891,4.891,0,0,1,2.625,2.562,4.639,4.639,0,0,1,.382,1.882v8.713h4.554v-17.382h-4.554Z" transform="translate(-1410.565 -1476.636)" fill="#fff"/>
        <path id="Path_19" data-name="Path 19" d="M1887.752,1481.585v2.342a5.682,5.682,0,0,0-2.312-1.965,7.546,7.546,0,0,0-3.216-.655,8.811,8.811,0,0,0-3.528.713,9.407,9.407,0,0,0-2.9,1.947,9.1,9.1,0,0,0-1.964,2.868,8.687,8.687,0,0,0-.713,3.511,9.043,9.043,0,0,0,2.677,6.484,9.391,9.391,0,0,0,2.9,1.947,8.813,8.813,0,0,0,3.528.713,6.942,6.942,0,0,0,4.261-1.308l-2.126-3.081a4.906,4.906,0,0,1-1.51.252,4.822,4.822,0,0,1-1.912-.385,4.936,4.936,0,0,1-2.642-2.661,5,5,0,0,1-.382-1.961,4.819,4.819,0,0,1,1.442-3.465,5.077,5.077,0,0,1,1.582-1.051,5,5,0,0,1,3.841,0,4.887,4.887,0,0,1,2.59,2.595,4.74,4.74,0,0,1,.382,1.9v13.67h4.693v-22.4Z" transform="translate(-1784.319 -1476.636)" fill="#fff"/>
        <path id="Path_20" data-name="Path 20" d="M1334.031,1480.936h-5.725l-3.171,4.632-3.19-4.632h-5.725l12.4,18.01h5.725l-6.343-9.21Z" transform="translate(-1315.982 -1476.324)" fill="#fff"/>
        <path id="Path_21" data-name="Path 21" d="M1314.72,1553.3h5.725l2.414-3.457-2.862-4.181Z" transform="translate(-1314.72 -1530.758)" fill="#fff"/>
      </g>
    </g>
    <g id="Group_6" data-name="Group 6" transform="translate(1005.337 1333.725)">
      <circle id="Ellipse_1" data-name="Ellipse 1" cx="2.061" cy="2.061" r="2.061" transform="translate(19.927 14.385)" fill="#fff"/>
      <circle id="Ellipse_2" data-name="Ellipse 2" cx="2.474" cy="2.474" r="2.474" transform="translate(24.049 9.438)" fill="#fff"/>
      <circle id="Ellipse_3" data-name="Ellipse 3" cx="2.886" cy="2.886" r="2.886" transform="translate(14.582 0)" fill="#fff"/>
      <g id="Group_5" data-name="Group 5" transform="translate(0 14.841)">
        <rect id="Rectangle_1" data-name="Rectangle 1" width="43.7" height="9.07" rx="4.535" transform="translate(0.138 28.973)" fill="#fff"/>
        <rect id="Rectangle_2" data-name="Rectangle 2" width="47.291" height="9.07" rx="4.535" transform="translate(12.368) rotate(45)" fill="#fff"/>
        <path id="Path_22" data-name="Path 22" d="M1129.133,1456.292l9.688-9.688a4.535,4.535,0,1,0-6.414-6.413l-9.688,9.688Z" transform="translate(-1104.053 -1436.984)" fill="#fff"/>
        <path id="Path_23" data-name="Path 23" d="M1009.783,1599.4v-1.846l-3.118,3.118a4.535,4.535,0,0,0,6.413,6.413l8.969-7.686Z" transform="translate(-1005.337 -1570.444)" fill="#fff"/>
        <path id="Path_24" data-name="Path 24" d="M1017.06,1551.8l-10.4,10.395a4.536,4.536,0,0,0,0,6.414h0a4.535,4.535,0,0,0,6.413,0l10.395-10.4Z" transform="translate(-1005.337 -1531.963)" fill="#fff"/>
        <g id="Group_4" data-name="Group 4" transform="translate(21.965 16.01)">
          <path id="Path_25" data-name="Path 25" d="M1144.659,1535.341l6.959-5.868-1.745-1.745-6.413,6.414Z" transform="translate(-1143.459 -1527.728)" fill="#fff"/>
        </g>
      </g>
    </g>
  </g>
</svg>
