<svg xmlns="http://www.w3.org/2000/svg" width="125.993" height="43.801" viewBox="0 0 125.993 43.801">
  <g id="Group_7" data-name="Group 7" transform="translate(-1005.337 -1333.725)">
    <g id="Group_3" data-name="Group 3" transform="translate(1044.738 1348.779)">
      <g id="Group_1" data-name="Group 1" transform="translate(0 20.745)">
        <path id="Path_1" data-name="Path 1" d="M1319.1,1630.949v-5.94h.6v5.94Z" transform="translate(-1319.1 -1624.916)" fill="#262d3a"/>
        <path id="Path_2" data-name="Path 2" d="M1335.769,1630.949l-3.123-4.813v4.813h-.6v-5.94h.612l3.123,4.83v-4.83h.6v5.94Z" transform="translate(-1329.484 -1624.916)" fill="#262d3a"/>
        <path id="Path_3" data-name="Path 3" d="M1367.568,1630.949l-3.123-4.813v4.813h-.6v-5.94h.612l3.123,4.83v-4.83h.6v5.94Z" transform="translate(-1354.982 -1624.916)" fill="#262d3a"/>
        <path id="Path_4" data-name="Path 4" d="M1394.653,1625.471a2.472,2.472,0,0,1,1.945-.9,2.5,2.5,0,0,1,1.962.9,3.117,3.117,0,0,1,.8,2.161,3.176,3.176,0,0,1-.792,2.178,2.608,2.608,0,0,1-3.923,0,3.2,3.2,0,0,1-.777-2.178A3.139,3.139,0,0,1,1394.653,1625.471Zm.415,3.923a1.971,1.971,0,0,0,1.562.7,1.935,1.935,0,0,0,1.538-.7,2.622,2.622,0,0,0,.6-1.762,2.592,2.592,0,0,0-.6-1.745,1.918,1.918,0,0,0-1.538-.712,1.964,1.964,0,0,0-1.562.712,2.593,2.593,0,0,0-.6,1.745A2.623,2.623,0,0,0,1395.068,1629.394Z" transform="translate(-1378.879 -1624.573)" fill="#262d3a"/>
        <path id="Path_5" data-name="Path 5" d="M1428.109,1630.169l1.671-5.16h.627l-1.969,5.94h-.675l-1.977-5.94h.628Z" transform="translate(-1404.401 -1624.916)" fill="#262d3a"/>
        <path id="Path_6" data-name="Path 6" d="M1453.443,1625.009l2.142,5.94h-.643l-.5-1.364h-2.684l-.486,1.364h-.651l2.15-5.94Zm-.345.83-1.106,3.127h2.228Z" transform="translate(-1424.254 -1624.916)" fill="#262d3a"/>
        <path id="Path_7" data-name="Path 7" d="M1477.39,1625.009h4.064v.61H1479.7v5.33h-.6v-5.33h-1.71Z" transform="translate(-1445.663 -1624.916)" fill="#262d3a"/>
        <path id="Path_8" data-name="Path 8" d="M1505.587,1630.949v-5.94h.6v5.94Z" transform="translate(-1468.228 -1624.916)" fill="#262d3a"/>
        <path id="Path_9" data-name="Path 9" d="M1517.539,1625.471a2.473,2.473,0,0,1,1.946-.9,2.5,2.5,0,0,1,1.962.9,3.116,3.116,0,0,1,.8,2.161,3.174,3.174,0,0,1-.792,2.178,2.607,2.607,0,0,1-3.923,0,3.2,3.2,0,0,1-.777-2.178A3.139,3.139,0,0,1,1517.539,1625.471Zm.416,3.923a1.97,1.97,0,0,0,1.561.7,1.935,1.935,0,0,0,1.538-.7,2.62,2.62,0,0,0,.6-1.762,2.59,2.59,0,0,0-.6-1.745,1.918,1.918,0,0,0-1.538-.712,1.964,1.964,0,0,0-1.561.712,2.593,2.593,0,0,0-.6,1.745A2.623,2.623,0,0,0,1517.955,1629.394Z" transform="translate(-1477.128 -1624.573)" fill="#262d3a"/>
        <path id="Path_10" data-name="Path 10" d="M1556.314,1630.949l-3.123-4.813v4.813h-.6v-5.94h.612l3.123,4.83v-4.83h.6v5.94Z" transform="translate(-1505.792 -1624.916)" fill="#262d3a"/>
        <path id="Path_11" data-name="Path 11" d="M1599.325,1630.949v-5.94h.6v5.33h2.676v.61Z" transform="translate(-1543.165 -1624.916)" fill="#262d3a"/>
        <path id="Path_12" data-name="Path 12" d="M1624.961,1625.009l2.142,5.94h-.643l-.5-1.364h-2.683l-.486,1.364h-.651l2.149-5.94Zm-.345.83-1.106,3.127h2.229Z" transform="translate(-1561.88 -1624.916)" fill="#262d3a"/>
        <path id="Path_13" data-name="Path 13" d="M1654.688,1630.949v-5.94h2.016c1.169,0,1.9.526,1.9,1.576a1.459,1.459,0,0,1-.714,1.271,1.555,1.555,0,0,1,.847,1.406,1.574,1.574,0,0,1-.517,1.238,2.032,2.032,0,0,1-1.373.449Zm.6-5.33v2h1.538c.691,0,1.177-.348,1.177-1.017s-.486-.983-1.184-.983Zm0,4.72h1.632c.73,0,1.216-.373,1.216-1.094,0-.669-.494-1.017-1.185-1.017h-1.663Z" transform="translate(-1587.36 -1624.916)" fill="#262d3a"/>
        <path id="Path_14" data-name="Path 14" d="M1684.73,1627.844a2.193,2.193,0,0,1-1.115-.534,1.426,1.426,0,0,1-.44-1.093,1.441,1.441,0,0,1,.565-1.195,2.1,2.1,0,0,1,1.334-.449,2.4,2.4,0,0,1,1.891.907l-.4.474a1.862,1.862,0,0,0-1.538-.78c-.722,0-1.255.416-1.255,1.017,0,.559.393.907,1.169,1.043l.541.1c1.059.178,1.671.755,1.671,1.695a1.5,1.5,0,0,1-.549,1.194,2.175,2.175,0,0,1-1.459.475,2.513,2.513,0,0,1-2.1-1.084l.408-.458a2.015,2.015,0,0,0,1.766.941c.776,0,1.341-.39,1.341-1.059q0-.852-1.153-1.068Z" transform="translate(-1610.096 -1624.573)" fill="#262d3a"/>
      </g>
      <g id="Group_2" data-name="Group 2" transform="translate(0 -3)">
        <path id="Path_15" data-name="Path 15" d="M1562.126,1485.939a3.549,3.549,0,0,1,1.127-.863,3.16,3.16,0,0,1,1.406-.32,3.049,3.049,0,0,1,1.879.64,4.075,4.075,0,0,1,1.295,1.67l.028.028,3.035-1.977-.028-.028a7.152,7.152,0,0,0-6.208-3.563,6.964,6.964,0,0,0-2.812.571,7.286,7.286,0,0,0-3.828,3.828,7.076,7.076,0,0,0,0,5.568,7.283,7.283,0,0,0,3.828,3.828,6.956,6.956,0,0,0,2.812.571,7.152,7.152,0,0,0,6.208-3.564l.028-.028-3.007-1.977-.028-.028-.028.056a3.586,3.586,0,0,1-1.295,1.6,3.3,3.3,0,0,1-1.879.571,3.412,3.412,0,0,1-2.533-1.1,3.911,3.911,0,0,1-.752-1.211,4.007,4.007,0,0,1-.278-1.5,4.118,4.118,0,0,1,.278-1.517A4.243,4.243,0,0,1,1562.126,1485.939Z" transform="translate(-1526.537 -1477.758)" fill="#262d3a"/>
        <path id="Path_16" data-name="Path 16" d="M1675.3,1451.936h-3.7v3.755h-2v3.09h2v5.831a4.976,4.976,0,0,0,.417,2.032,5.409,5.409,0,0,0,1.128,1.657,5.16,5.16,0,0,0,1.67,1.113,5.22,5.22,0,0,0,2.046.4h2.7v-3.229h-2.7a1.525,1.525,0,0,1-1.1-.446,1.454,1.454,0,0,1-.459-1.086v-6.245h4.306v-3.09l-4.306-.051Z" transform="translate(-1624.398 -1451.936)" fill="#262d3a"/>
        <path id="Path_17" data-name="Path 17" d="M1763.439,1483.423a7.361,7.361,0,0,0-2.283-1.545,6.893,6.893,0,0,0-2.784-.571,7.057,7.057,0,0,0-2.826.571,7.245,7.245,0,0,0-3.842,3.828,7.142,7.142,0,0,0,0,5.6,7.337,7.337,0,0,0,1.545,2.283,7.107,7.107,0,0,0,2.3,1.531,7.212,7.212,0,0,0,2.826.557,7.115,7.115,0,0,0,3.271-.786,6.958,6.958,0,0,0,2.547-2.19l.056-.056-3.229-1.422-.056-.028-.028.028a2.573,2.573,0,0,1-1.183.933,4.339,4.339,0,0,1-1.378.209,3.02,3.02,0,0,1-1.5-.374,4.156,4.156,0,0,1-1.142-.929,4.037,4.037,0,0,1-.594-.924h10.226l.028-.056a7.184,7.184,0,0,0,.167-1.559,6.963,6.963,0,0,0-.57-2.812A7.361,7.361,0,0,0,1763.439,1483.423Zm-8.519,3.87c.033-.111.069-.221.112-.328a3.729,3.729,0,0,1,.766-1.221,3.689,3.689,0,0,1,1.155-.818,3.377,3.377,0,0,1,1.42-.305,3.231,3.231,0,0,1,2.13.752,4.148,4.148,0,0,1,1.294,1.921Z" transform="translate(-1695.556 -1477.566)" fill="#262d3a"/>
        <path id="Path_18" data-name="Path 18" d="M1440.269,1483.4a5.284,5.284,0,0,0-1.865-1.559,5.639,5.639,0,0,0-2.534-.538,6.89,6.89,0,0,0-2.784.571,7.283,7.283,0,0,0-3.828,3.828,7.145,7.145,0,0,0,0,5.6,7.337,7.337,0,0,0,1.545,2.283,7.148,7.148,0,0,0,2.283,1.531,7.04,7.04,0,0,0,2.784.557,5.331,5.331,0,0,0,3.361-1.052l-1.684-2.441a3.549,3.549,0,0,1-1.176.18,3.678,3.678,0,0,1-1.5-.307,4.15,4.15,0,0,1-1.239-.838,3.886,3.886,0,0,1-.849-1.229,3.647,3.647,0,0,1-.306-1.481,3.813,3.813,0,0,1,.306-1.523,3.681,3.681,0,0,1,.849-1.229,4.3,4.3,0,0,1,1.239-.825,3.678,3.678,0,0,1,1.5-.307,3.871,3.871,0,0,1,1.489.293,3.918,3.918,0,0,1,2.1,2.052,3.714,3.714,0,0,1,.306,1.507v6.978h3.647v-13.92h-3.647Z" transform="translate(-1414.174 -1477.566)" fill="#262d3a"/>
        <path id="Path_19" data-name="Path 19" d="M1884.838,1481.53v1.875a4.551,4.551,0,0,0-1.851-1.573,6.044,6.044,0,0,0-2.575-.524,7.056,7.056,0,0,0-2.826.571,7.532,7.532,0,0,0-2.325,1.559,7.285,7.285,0,0,0-1.573,2.3,6.957,6.957,0,0,0-.571,2.812,7.241,7.241,0,0,0,2.144,5.192,7.518,7.518,0,0,0,2.325,1.559,7.058,7.058,0,0,0,2.826.571,5.559,5.559,0,0,0,3.412-1.048l-1.7-2.467a3.929,3.929,0,0,1-1.209.2,3.86,3.86,0,0,1-1.531-.308,3.952,3.952,0,0,1-2.116-2.131,4.008,4.008,0,0,1-.306-1.57,3.86,3.86,0,0,1,1.155-2.775,4.067,4.067,0,0,1,1.267-.841,4,4,0,0,1,3.076,0,3.916,3.916,0,0,1,2.074,2.078,3.8,3.8,0,0,1,.306,1.519v10.947h3.759V1481.53Z" transform="translate(-1802.004 -1477.566)" fill="#262d3a"/>
        <path id="Path_20" data-name="Path 20" d="M1330.484,1480.936H1325.9l-2.539,3.709-2.555-3.709h-4.585l9.933,14.423h4.585l-5.08-7.376Z" transform="translate(-1316.029 -1477.243)" fill="#262d3a"/>
        <path id="Path_21" data-name="Path 21" d="M1314.72,1551.779h4.585l1.933-2.768-2.292-3.348Z" transform="translate(-1314.72 -1533.727)" fill="#262d3a"/>
      </g>
    </g>
    <g id="Group_6" data-name="Group 6" transform="translate(1005.337 1333.725)">
      <circle id="Ellipse_1" data-name="Ellipse 1" cx="1.651" cy="1.651" r="1.651" transform="translate(15.958 11.52)" fill="#262d3a"/>
      <circle id="Ellipse_2" data-name="Ellipse 2" cx="1.981" cy="1.981" r="1.981" transform="translate(19.26 7.558)" fill="#262d3a"/>
      <circle id="Ellipse_3" data-name="Ellipse 3" cx="2.311" cy="2.311" r="2.311" transform="translate(11.678 0)" fill="#262d3a"/>
      <g id="Group_5" data-name="Group 5" transform="translate(0 11.885)">
        <rect id="Rectangle_1" data-name="Rectangle 1" width="34.997" height="7.263" rx="3.632" transform="translate(0.11 23.202)" fill="#474747"/>
        <rect id="Rectangle_2" data-name="Rectangle 2" width="37.873" height="7.263" rx="3.632" transform="translate(9.905) rotate(45)" fill="#474747"/>
        <path id="Path_22" data-name="Path 22" d="M1127.856,1452.821l7.759-7.759a3.632,3.632,0,0,0-5.136-5.136l-7.758,7.759Z" transform="translate(-1107.771 -1437.358)" fill="#474747"/>
        <path id="Path_23" data-name="Path 23" d="M1008.9,1599.037v-1.478l-2.5,2.5a3.632,3.632,0,0,0,5.136,5.136l7.183-6.155Z" transform="translate(-1005.337 -1575.844)" fill="#474747"/>
        <path id="Path_24" data-name="Path 24" d="M1014.725,1551.8l-8.325,8.325a3.632,3.632,0,0,0,0,5.136h0a3.632,3.632,0,0,0,5.136,0l8.325-8.325Z" transform="translate(-1005.337 -1535.914)" fill="#474747"/>
        <g id="Group_4" data-name="Group 4" transform="translate(17.59 12.822)">
          <path id="Path_25" data-name="Path 25" d="M1144.42,1533.824l5.573-4.7-1.4-1.4-5.136,5.136Z" transform="translate(-1143.459 -1527.728)" fill="#474747"/>
        </g>
      </g>
    </g>
  </g>
</svg>
